<svg width="17" height="24" viewBox="0 0 17 24" fill="none" xmlns="http://www.w3.org/2000/svg">
<path d="M8.51406 22.2581C8.49244 22.2674 8.47351 22.2821 8.45898 22.3007L8.47605 22.2898C8.48765 22.2791 8.50406 22.2665 8.51406 22.2581Z" fill="#0D0C22"/>
<path d="M9.31134 11.0868C8.45166 11.4558 7.47606 11.8742 6.21165 11.8742C5.68272 11.8732 5.15634 11.8004 4.64685 11.6579L5.52135 20.6613C5.5523 21.0375 5.72325 21.3884 6.00026 21.6442C6.27726 21.9 6.64006 22.0418 7.0166 22.0418C7.0166 22.0418 8.25653 22.1064 8.67028 22.1064C9.11557 22.1064 10.4508 22.0418 10.4508 22.0418C10.8273 22.0418 11.19 21.8998 11.467 21.644C11.7439 21.3882 11.9148 21.0375 11.9458 20.6613L12.8824 10.7122C12.4638 10.5689 12.0414 10.4736 11.5652 10.4736C10.7416 10.4733 10.078 10.7578 9.31134 11.0868Z" fill="#FFDD00"/>
<path d="M16.9263 6.41467L16.7946 5.74858C16.6764 5.15094 16.4082 4.58624 15.7965 4.37024C15.6004 4.30113 15.3779 4.27145 15.2275 4.1284C15.0772 3.98538 15.0327 3.76325 14.998 3.55725C14.9335 3.17916 14.873 2.80075 14.807 2.42332C14.75 2.09882 14.7049 1.73431 14.5565 1.43662C14.3633 1.0369 13.9625 0.803143 13.5639 0.648487C13.3596 0.572028 13.1512 0.507348 12.9395 0.454764C11.9437 0.1913 10.8966 0.094438 9.87207 0.0392269C8.64235 -0.0288181 7.40934 -0.00831711 6.18252 0.100572C5.2694 0.183873 4.30765 0.284611 3.43993 0.601348C3.12279 0.717259 2.79597 0.856415 2.55482 1.10212C2.25892 1.40401 2.16233 1.87088 2.37836 2.24735C2.53196 2.51468 2.79212 2.70357 3.06805 2.82852C3.42747 2.98952 3.80282 3.11204 4.18789 3.19402C5.26007 3.43166 6.37057 3.52495 7.46593 3.56468C8.68 3.6138 9.896 3.57398 11.1043 3.44552C11.4031 3.41259 11.7013 3.37309 11.9991 3.32704C12.3497 3.27311 12.5747 2.81334 12.4714 2.49305C12.3477 2.11014 12.0155 1.96162 11.6397 2.01941C11.5843 2.02812 11.5293 2.03619 11.4739 2.04426L11.434 2.05007C11.3067 2.06623 11.1794 2.08128 11.0521 2.09528C10.7892 2.12369 10.5256 2.14694 10.2613 2.16502C9.66954 2.20634 9.07614 2.22539 8.48307 2.22637C7.90028 2.22637 7.31718 2.20989 6.73569 2.17148C6.47038 2.15405 6.20571 2.13187 5.94169 2.10496C5.82159 2.09237 5.70182 2.07914 5.58205 2.06428L5.46806 2.04975L5.44328 2.04621L5.32511 2.02909C5.08363 1.9926 4.84214 1.95064 4.60324 1.89994C4.57913 1.89457 4.55756 1.88113 4.5421 1.86181C4.52665 1.8425 4.51822 1.81848 4.51822 1.79372C4.51822 1.76895 4.52665 1.74493 4.5421 1.72562C4.55756 1.7063 4.57913 1.69285 4.60324 1.68749H4.60775C4.81478 1.64326 5.02341 1.60548 5.23269 1.57255C5.30247 1.56157 5.37244 1.55081 5.44263 1.54026H5.44455C5.5756 1.53154 5.7073 1.50797 5.83769 1.49247C6.97223 1.37414 8.11351 1.33379 9.25356 1.37172C9.80702 1.38787 10.3602 1.42047 10.9111 1.47665C11.0296 1.48892 11.1474 1.50184 11.2653 1.51637C11.3103 1.52186 11.3557 1.52831 11.4011 1.5338L11.4926 1.54704C11.7592 1.58686 12.0244 1.63518 12.2882 1.69201C12.6791 1.77725 13.181 1.80502 13.3549 2.23444C13.4103 2.37068 13.4354 2.52212 13.466 2.66514L13.5049 2.84757C13.506 2.85083 13.5067 2.85419 13.5072 2.85757C13.5993 3.28807 13.6915 3.71857 13.7838 4.14906C13.7905 4.18087 13.7907 4.21373 13.7842 4.24559C13.7778 4.27747 13.7648 4.30764 13.7462 4.33429C13.7276 4.36092 13.7037 4.38342 13.6761 4.40038C13.6484 4.41734 13.6176 4.42839 13.5854 4.43288H13.5828L13.5265 4.44063L13.4708 4.44804C13.2944 4.47108 13.1177 4.49261 12.9408 4.51263C12.5924 4.55245 12.2435 4.58688 11.8941 4.61595C11.1997 4.67384 10.5039 4.71183 9.8067 4.72992C9.45146 4.73938 9.09632 4.74381 8.74128 4.74315C7.32813 4.74205 5.91619 4.65967 4.51244 4.49647C4.36046 4.4784 4.20849 4.45902 4.05651 4.43933C4.17436 4.45452 3.97086 4.4277 3.92966 4.4219C3.83306 4.40834 3.73647 4.39424 3.63987 4.37961C3.31564 4.33084 2.99335 4.27079 2.66976 4.21816C2.27856 4.15359 1.90442 4.18588 1.55057 4.37961C1.26011 4.53899 1.02502 4.7834 0.876672 5.08024C0.724054 5.39665 0.678655 5.74115 0.610396 6.08115C0.542137 6.42112 0.435884 6.78694 0.476132 7.13596C0.562743 7.88923 1.08789 8.50139 1.84325 8.63829C2.55385 8.76743 3.26832 8.87204 3.98471 8.96116C6.7989 9.30678 9.64196 9.34812 12.465 9.0845C12.6948 9.06297 12.9244 9.03952 13.1537 9.01411C13.2253 9.00623 13.2977 9.01449 13.3657 9.03832C13.4337 9.06215 13.4956 9.10094 13.5467 9.15183C13.5978 9.20272 13.6369 9.26443 13.6612 9.33244C13.6854 9.40046 13.6942 9.47306 13.6869 9.54491L13.6154 10.2417C13.4713 11.6496 13.3273 13.0574 13.1833 14.4652C13.033 15.9435 12.8818 17.4217 12.7296 18.8997C12.6867 19.3161 12.6438 19.7323 12.6008 20.1483C12.5596 20.5581 12.5538 20.9807 12.4762 21.3857C12.3539 22.0223 11.924 22.4134 11.2968 22.5564C10.7222 22.6876 10.1352 22.7564 9.54591 22.7617C8.89261 22.7652 8.23965 22.7362 7.58636 22.7397C6.88894 22.7437 6.03475 22.6791 5.49641 22.1586C5.02341 21.7015 4.95805 20.9856 4.89366 20.3666C4.8078 19.5471 4.7227 18.7278 4.63832 17.9086L4.16502 13.3532L3.85883 10.4057C3.85367 10.3569 3.84852 10.3088 3.84369 10.2597C3.80698 9.90815 3.55874 9.56397 3.16753 9.58172C2.83269 9.59657 2.45211 9.88199 2.49139 10.2597L2.71837 12.445L3.18782 16.9652C3.32155 18.2491 3.45496 19.5332 3.58804 20.8177C3.61381 21.0637 3.63795 21.3104 3.66499 21.5564C3.81214 22.9009 4.83602 23.6254 6.10397 23.8294C6.84452 23.9489 7.60309 23.9735 8.35459 23.9857C9.31795 24.0013 10.291 24.0384 11.2385 23.8633C12.6427 23.605 13.6962 22.6648 13.8465 21.2065C13.8895 20.7854 13.9324 20.3643 13.9753 19.943C14.1181 18.5499 14.2606 17.1567 14.4029 15.7634L14.8685 11.2109L15.082 9.12454C15.0926 9.02107 15.1362 8.9238 15.2062 8.84711C15.2763 8.77042 15.3691 8.71836 15.4709 8.69866C15.8724 8.6202 16.2562 8.48621 16.5418 8.1798C16.9965 7.69196 17.0869 7.05589 16.9263 6.41467ZM1.82264 6.86476C1.82876 6.86185 1.81749 6.91446 1.81266 6.93901C1.81169 6.90187 1.81362 6.86894 1.82264 6.86476ZM1.8616 7.16696C1.86482 7.16469 1.87448 7.17762 1.88446 7.19312C1.86933 7.17889 1.85967 7.16825 1.86128 7.16696H1.8616ZM1.89992 7.21764C1.92117 7.25607 1.91376 7.24121 1.89992 7.21764ZM1.97687 7.28028H1.9788C1.9788 7.28255 1.98234 7.2848 1.98363 7.28707C1.98149 7.28458 1.97912 7.28231 1.97655 7.28028H1.97687ZM15.4523 7.18664C15.308 7.32419 15.0907 7.38812 14.8759 7.42009C12.4675 7.77848 10.024 7.95993 7.58924 7.87987C5.84671 7.82014 4.12253 7.62607 2.39738 7.38166C2.22833 7.35778 2.04513 7.32678 1.92889 7.20182C1.70995 6.96612 1.81749 6.49151 1.87448 6.20674C1.92664 5.94585 2.02645 5.59813 2.33587 5.56099C2.81884 5.50417 3.37971 5.70854 3.85754 5.78119C4.4328 5.86922 5.01022 5.93972 5.58976 5.99267C8.06319 6.21869 10.5782 6.18349 13.0407 5.85287C13.4895 5.79238 13.9367 5.7221 14.3823 5.64203C14.7793 5.57067 15.2195 5.43669 15.4593 5.84899C15.6239 6.1299 15.6458 6.50571 15.6203 6.8231C15.6125 6.96137 15.5522 7.09143 15.4519 7.18664H15.4523Z" fill="#0D0C22"/>
</svg>
