<svg width="357" height="80" viewBox="0 0 357 80" fill="none" xmlns="http://www.w3.org/2000/svg">
<path d="M27.384 43.264C27.384 43.1893 27.4587 43.152 27.608 43.152C27.72 43.152 27.8133 43.1893 27.888 43.264C28 43.3013 28.056 43.3387 28.056 43.376C27.6827 46.2133 27.496 48.808 27.496 51.16C27.496 51.4587 27.44 51.6827 27.328 51.832C27.216 51.944 26.992 52 26.656 52H2.352C2.24 52 2.184 51.888 2.184 51.664C2.184 51.44 2.24 51.328 2.352 51.328C3.62133 51.328 4.536 51.2347 5.096 51.048C5.69333 50.8613 6.08533 50.5067 6.272 49.984C6.496 49.424 6.608 48.584 6.608 47.464V21.536C6.608 20.416 6.496 19.5947 6.272 19.072C6.08533 18.5493 5.69333 18.1947 5.096 18.008C4.49867 17.784 3.584 17.672 2.352 17.672C2.24 17.672 2.184 17.56 2.184 17.336C2.184 17.112 2.24 17 2.352 17H25.648C26.0213 17 26.208 17.168 26.208 17.504L26.32 24.784C26.32 24.8587 26.208 24.9147 25.984 24.952C25.7973 24.9893 25.6853 24.952 25.648 24.84C24.752 20.584 22.1573 18.456 17.864 18.456H15.624C14.28 18.456 13.328 18.6987 12.768 19.184C12.208 19.6693 11.928 20.4907 11.928 21.648V33.072H17.304C21.4107 33.072 23.464 31.6907 23.464 28.928C23.464 28.816 23.5573 28.76 23.744 28.76C23.968 28.76 24.08 28.816 24.08 28.928L24.024 33.8L24.08 36.432C24.1547 37.6267 24.192 38.5973 24.192 39.344C24.192 39.4187 24.08 39.456 23.856 39.456C23.632 39.456 23.52 39.4187 23.52 39.344C23.52 36.1333 21.4293 34.528 17.248 34.528H11.928V47.24C11.928 48.472 12.152 49.3307 12.6 49.816C13.0853 50.3013 13.9253 50.544 15.12 50.544H17.864C22.8667 50.544 26.04 48.1173 27.384 43.264ZM71.673 51.328C71.8223 51.328 71.897 51.44 71.897 51.664C71.897 51.888 71.8223 52 71.673 52C70.7397 52 69.993 51.9813 69.433 51.944L66.241 51.888L63.049 51.944C62.489 51.9813 61.7423 52 60.809 52C60.697 52 60.641 51.888 60.641 51.664C60.641 51.44 60.697 51.328 60.809 51.328C62.041 51.328 62.881 51.0667 63.329 50.544C63.777 49.984 64.001 48.9573 64.001 47.464V39.12C64.001 37.0293 63.6277 35.48 62.881 34.472C62.1717 33.464 61.0703 32.96 59.577 32.96C58.569 32.96 57.561 33.2027 56.553 33.688C55.545 34.1733 54.6677 34.8267 53.921 35.648V36.208V47.464C53.921 48.9947 54.1263 50.0213 54.537 50.544C54.985 51.0667 55.8437 51.328 57.113 51.328C57.225 51.328 57.281 51.44 57.281 51.664C57.281 51.888 57.225 52 57.113 52C56.1797 52 55.433 51.9813 54.873 51.944L51.625 51.888L48.433 51.944C47.873 51.9813 47.1263 52 46.193 52C46.081 52 46.025 51.888 46.025 51.664C46.025 51.44 46.081 51.328 46.193 51.328C47.4623 51.328 48.3023 51.0667 48.713 50.544C49.161 50.0213 49.385 48.9947 49.385 47.464V39.12C49.385 37.0293 49.0117 35.48 48.265 34.472C47.5557 33.464 46.4543 32.96 44.961 32.96C44.0277 32.96 43.0757 33.184 42.105 33.632C41.1343 34.08 40.2757 34.6773 39.529 35.424V47.464C39.529 48.9947 39.7343 50.0213 40.145 50.544C40.5557 51.0667 41.3957 51.328 42.665 51.328C42.777 51.328 42.833 51.44 42.833 51.664C42.833 51.888 42.777 52 42.665 52C41.7317 52 41.0037 51.9813 40.481 51.944L37.233 51.888L33.985 51.944C33.4623 51.9813 32.7343 52 31.801 52C31.689 52 31.633 51.888 31.633 51.664C31.633 51.44 31.689 51.328 31.801 51.328C33.0703 51.328 33.9103 51.0667 34.321 50.544C34.7317 50.0213 34.937 48.9947 34.937 47.464V36.768C34.937 35.5733 34.7877 34.696 34.489 34.136C34.2277 33.576 33.7797 33.296 33.145 33.296C32.585 33.296 31.6517 33.576 30.345 34.136H30.289C30.1397 34.136 30.0277 34.0427 29.953 33.856C29.8783 33.6693 29.897 33.5573 30.009 33.52L37.345 29.936C37.569 29.8613 37.6997 29.824 37.737 29.824C38.1103 29.824 38.4837 30.2533 38.857 31.112C39.2677 31.9333 39.4917 33.016 39.529 34.36C42.0303 31.2987 44.7557 29.768 47.705 29.768C49.4223 29.768 50.8037 30.1973 51.849 31.056C52.8943 31.8773 53.5477 33.0907 53.809 34.696C56.4597 31.4107 59.297 29.768 62.321 29.768C64.2997 29.768 65.8117 30.3467 66.857 31.504C67.9397 32.624 68.481 34.3413 68.481 36.656V47.464C68.481 48.9947 68.6863 50.0213 69.097 50.544C69.545 51.0667 70.4037 51.328 71.673 51.328ZM95.0508 48.976C95.2001 48.976 95.2935 49.0693 95.3308 49.256C95.3681 49.4053 95.3121 49.5173 95.1628 49.592L89.3948 52.336C89.2455 52.4107 89.0775 52.448 88.8908 52.448C88.3308 52.448 87.7895 52.1307 87.2668 51.496C86.7815 50.824 86.4641 49.9467 86.3148 48.864L83.7388 50.656C82.8428 51.2907 82.0215 51.7387 81.2748 52C80.5655 52.2613 79.7628 52.392 78.8668 52.392C77.3361 52.392 76.1601 52.0373 75.3388 51.328C74.5548 50.5813 74.1628 49.6107 74.1628 48.416C74.1628 47.408 74.4241 46.5867 74.9468 45.952C75.5068 45.3173 76.1975 44.8133 77.0188 44.44C77.8775 44.0293 79.1281 43.5253 80.7708 42.928L86.2028 40.912V37.552C86.2028 35.2373 85.9601 33.5573 85.4748 32.512C85.0268 31.4293 84.2988 30.888 83.2908 30.888C82.0588 30.888 81.1628 31.3547 80.6028 32.288C80.0801 33.184 79.7628 34.192 79.6508 35.312C79.4268 37.216 78.4748 38.168 76.7948 38.168C75.9735 38.168 75.3575 37.9813 74.9468 37.608C74.5735 37.2347 74.3868 36.768 74.3868 36.208C74.3868 35.1627 75.0028 34.1547 76.2348 33.184C77.5041 32.176 79.0161 31.3733 80.7708 30.776C82.5628 30.1413 84.1308 29.824 85.4748 29.824C87.0801 29.824 88.3495 30.328 89.2828 31.336C90.2535 32.344 90.7388 33.856 90.7388 35.872V45.952C90.7388 47.1093 90.9255 47.9867 91.2988 48.584C91.6721 49.1813 92.2135 49.48 92.9228 49.48C93.4828 49.48 94.1548 49.312 94.9388 48.976H95.0508ZM86.2028 47.968V47.408V41.864L82.8428 43.264C81.8721 43.6373 81.0695 44.0853 80.4348 44.608C79.8375 45.0933 79.5388 45.8027 79.5388 46.736C79.5388 47.632 79.8188 48.36 80.3788 48.92C80.9761 49.4427 81.6855 49.704 82.5068 49.704C83.1788 49.704 83.8881 49.48 84.6348 49.032L86.2028 47.968ZM101.654 23.944C100.684 23.944 99.9184 23.6827 99.3584 23.16C98.8358 22.6373 98.5744 21.8907 98.5744 20.92C98.5744 19.9867 98.8358 19.2773 99.3584 18.792C99.9184 18.2693 100.684 18.008 101.654 18.008C102.588 18.008 103.316 18.2693 103.838 18.792C104.361 19.2773 104.622 19.9867 104.622 20.92C104.622 21.8907 104.361 22.6373 103.838 23.16C103.353 23.6827 102.625 23.944 101.654 23.944ZM96.5024 52C96.3904 52 96.3344 51.888 96.3344 51.664C96.3344 51.44 96.3904 51.328 96.5024 51.328C97.7718 51.328 98.6118 51.0667 99.0224 50.544C99.4331 50.0213 99.6384 48.9947 99.6384 47.464V37.272C99.6384 36.0027 99.5078 35.088 99.2464 34.528C98.9851 33.9307 98.5371 33.632 97.9024 33.632C97.3424 33.632 96.6144 33.856 95.7184 34.304H95.6624C95.5131 34.304 95.4011 34.2107 95.3264 34.024C95.2518 33.8373 95.2704 33.7067 95.3824 33.632L103.446 29.88L103.614 29.824C103.764 29.824 103.913 29.9173 104.062 30.104C104.249 30.2533 104.342 30.384 104.342 30.496V31.672C104.268 33.24 104.23 35.088 104.23 37.216V47.464C104.23 48.9947 104.436 50.0213 104.846 50.544C105.294 51.0667 106.153 51.328 107.422 51.328C107.534 51.328 107.59 51.44 107.59 51.664C107.59 51.888 107.534 52 107.422 52C106.489 52 105.742 51.9813 105.182 51.944L101.934 51.888L98.6864 51.944C98.1638 51.9813 97.4358 52 96.5024 52ZM109.865 52C109.753 52 109.697 51.888 109.697 51.664C109.697 51.44 109.753 51.328 109.865 51.328C111.097 51.328 111.937 51.0667 112.385 50.544C112.833 49.984 113.057 48.9573 113.057 47.464V18.848C113.057 17.5413 112.927 16.608 112.665 16.048C112.441 15.4507 112.012 15.152 111.377 15.152C110.817 15.152 110.071 15.376 109.137 15.824H109.081C108.932 15.824 108.82 15.7307 108.745 15.544C108.671 15.3573 108.671 15.2267 108.745 15.152L116.641 11.456L116.865 11.4C117.015 11.4 117.183 11.4747 117.369 11.624C117.593 11.7733 117.705 11.904 117.705 12.016V47.464C117.705 48.9947 117.911 50.0213 118.321 50.544C118.732 51.0667 119.572 51.328 120.841 51.328C120.953 51.328 121.009 51.44 121.009 51.664C121.009 51.888 120.953 52 120.841 52C119.945 52 119.217 51.9813 118.657 51.944L115.353 51.888L112.105 51.944C111.545 51.9813 110.799 52 109.865 52Z" fill="#101010"/>
<path d="M151.288 54.304C147.363 54.304 144.248 53.7707 141.944 52.704C139.683 51.68 138.552 50.2933 138.552 48.544C138.552 45.472 140.984 42.528 145.848 39.712C150.371 37.1093 154.68 35.808 158.776 35.808C160.483 35.808 161.336 36.256 161.336 37.152C161.336 39.584 158.627 42.016 153.208 44.448C152.525 44.7467 151.928 45.0027 151.416 45.216C150.904 45.3867 150.499 45.472 150.2 45.472C149.816 45.472 149.624 45.408 149.624 45.28C149.624 45.0667 149.816 44.832 150.2 44.576C150.627 44.32 150.989 44.128 151.288 44C154.275 42.6773 156.408 41.12 157.688 39.328C157.987 38.944 158.136 38.6027 158.136 38.304C158.136 38.048 157.965 37.92 157.624 37.92C154.296 37.92 150.712 38.9227 146.872 40.928C142.691 43.104 140.6 45.4293 140.6 47.904C140.6 50.208 143.885 51.36 150.456 51.36C155.491 51.36 161.101 50.656 167.288 49.248C167.928 49.12 168.824 48.8853 169.976 48.544C171.128 48.2027 172.365 47.7973 173.688 47.328C175.053 46.816 176.333 46.24 177.528 45.6C178.765 44.96 179.768 44.2773 180.536 43.552C181.304 42.784 181.688 41.9947 181.688 41.184C181.688 40.16 181.048 39.2213 179.768 38.368C178.488 37.5147 176.845 36.7467 174.84 36.064C172.877 35.3813 170.787 34.7627 168.568 34.208C166.349 33.6107 164.301 33.0987 162.424 32.672C161.443 32.416 160.291 32.032 158.968 31.52C157.645 30.9653 156.493 30.304 155.512 29.536C154.531 28.7253 154.04 27.8293 154.04 26.848C154.04 25.3547 154.915 23.9253 156.664 22.56C158.456 21.152 160.973 19.9147 164.216 18.848C166.947 17.9947 169.571 17.376 172.088 16.992C174.648 16.5653 177.016 16.352 179.192 16.352C181.965 16.352 183.949 16.6933 185.144 17.376C186.381 18.016 187 18.8907 187 20C187 20.5547 186.787 21.28 186.36 22.176C185.933 23.072 185.4 23.8827 184.76 24.608C184.12 25.2907 183.48 25.632 182.84 25.632C182.328 25.632 182.072 25.4827 182.072 25.184C182.072 24.9707 182.307 24.672 182.776 24.288C183.245 23.904 183.715 23.456 184.184 22.944C184.653 22.432 184.888 21.8987 184.888 21.344C184.888 20.4907 184.397 19.9147 183.416 19.616C182.477 19.3173 181.069 19.168 179.192 19.168C178.253 19.168 177.144 19.232 175.864 19.36C174.627 19.4453 173.325 19.616 171.96 19.872C170.723 20.0853 169.229 20.384 167.48 20.768C165.773 21.152 164.173 21.664 162.68 22.304C159.352 23.712 157.688 25.0133 157.688 26.208C157.688 27.616 159.907 28.832 164.344 29.856C168.696 30.8373 172.024 31.6053 174.328 32.16C176.675 32.7147 178.019 33.0347 178.36 33.12C180.877 33.9307 182.605 34.912 183.544 36.064C184.525 37.1733 185.016 38.368 185.016 39.648C185.016 40.5013 184.717 41.44 184.12 42.464C183.565 43.4453 182.691 44.3627 181.496 45.216C179.747 46.5387 177.827 47.776 175.736 48.928C173.645 50.0373 171.043 51.0187 167.928 51.872C164.984 52.6827 162.125 53.28 159.352 53.664C156.621 54.0907 153.933 54.304 151.288 54.304ZM196.733 34.976C196.093 34.976 195.538 34.7627 195.069 34.336C194.642 33.8667 194.429 33.312 194.429 32.672C194.429 32.032 194.642 31.4773 195.069 31.008C195.538 30.5387 196.093 30.304 196.733 30.304C197.373 30.304 197.928 30.5387 198.397 31.008C198.866 31.4773 199.101 32.032 199.101 32.672C199.101 33.312 198.866 33.8667 198.397 34.336C197.928 34.7627 197.373 34.976 196.733 34.976ZM192.061 53.088C190.568 53.088 189.309 52.704 188.285 51.936C187.304 51.1253 186.92 49.8027 187.133 47.968C187.218 47.3707 187.432 46.5387 187.773 45.472C188.114 44.3627 188.541 43.2533 189.053 42.144C189.608 40.992 190.205 40.0107 190.845 39.2C191.485 38.3893 192.125 37.984 192.765 37.984C193.277 37.984 193.768 38.1547 194.237 38.496C194.706 38.7947 194.941 39.2213 194.941 39.776C194.941 40.0747 194.728 40.5013 194.301 41.056C193.874 41.568 193.362 42.2293 192.765 43.04C192.21 43.808 191.72 44.6827 191.293 45.664C190.866 46.6027 190.653 47.6267 190.653 48.736C190.653 49.76 190.866 50.464 191.293 50.848C191.762 51.1893 192.317 51.36 192.957 51.36C193.768 51.36 194.642 51.1467 195.581 50.72C196.52 50.2507 197.458 49.6747 198.397 48.992C198.952 48.608 199.762 47.904 200.829 46.88C201.938 45.856 203.218 44.5547 204.669 42.976C204.754 42.8907 204.84 42.848 204.925 42.848C205.266 42.848 205.437 43.0827 205.437 43.552C205.437 43.68 205.181 44.0427 204.669 44.64C204.157 45.1947 203.538 45.8347 202.813 46.56C202.13 47.2853 201.469 47.968 200.829 48.608C200.189 49.2053 199.72 49.6107 199.421 49.824C198.354 50.6347 197.202 51.3813 195.965 52.064C194.77 52.7467 193.469 53.088 192.061 53.088ZM189.453 78.048C188.045 78.048 186.616 77.8133 185.165 77.344C183.715 76.8747 182.499 76.1067 181.517 75.04C180.536 74.016 180.045 72.6933 180.045 71.072C180.045 69.2373 180.621 67.488 181.773 65.824C182.925 64.16 184.461 62.624 186.381 61.216C188.259 59.808 190.371 58.528 192.717 57.376C195.021 56.224 197.368 55.2 199.758 54.304C202.147 53.4507 204.408 52.7467 206.542 52.192C208.675 51.6373 210.488 51.2533 211.982 51.04L213.198 46.048C212.259 47.2853 211.15 48.48 209.87 49.632C208.59 50.784 207.096 51.36 205.39 51.36C204.579 51.36 203.918 51.04 203.406 50.4C202.936 49.76 202.702 48.992 202.702 48.096C202.702 46.6027 203.128 45.088 203.982 43.552C204.878 42.016 206.008 40.608 207.374 39.328C208.782 38.0053 210.275 36.9387 211.854 36.128C213.475 35.3173 215.032 34.912 216.526 34.912C216.91 34.912 217.464 35.0187 218.19 35.232C218.958 35.4027 219.64 35.6587 220.238 36C220.878 36.3413 221.198 36.768 221.198 37.28C221.07 37.6213 220.835 37.8773 220.494 38.048C220.195 38.176 219.875 38.2827 219.534 38.368C218.979 40.4587 218.403 42.5493 217.806 44.64C217.208 46.7307 216.611 48.8427 216.014 50.976C216.44 50.976 216.995 51.0187 217.678 51.104C218.403 51.1467 219.043 51.296 219.598 51.552C220.152 51.808 220.43 52.2347 220.43 52.832C220.43 53.0453 220.366 53.152 220.238 53.152C220.195 53.152 220.131 53.1307 220.046 53.088C219.96 53.088 219.854 53.088 219.726 53.088C218.872 52.6613 217.955 52.448 216.974 52.448C216.76 52.448 216.547 52.448 216.333 52.448C216.12 52.448 215.907 52.4693 215.694 52.512C214.798 55.3707 213.56 58.2933 211.982 61.28C210.403 64.3093 208.504 67.0827 206.286 69.6C204.067 72.1173 201.571 74.144 198.797 75.68C195.981 77.2587 192.867 78.048 189.453 78.048ZM208.334 49.12C209.315 48.5653 210.296 47.6907 211.278 46.496C212.302 45.3013 213.262 43.936 214.158 42.4C215.096 40.864 215.886 39.328 216.526 37.792C215.502 37.792 214.35 38.176 213.07 38.944C211.79 39.6693 210.574 40.608 209.422 41.76C208.27 42.8693 207.31 44.0427 206.542 45.28C205.816 46.4747 205.454 47.5627 205.454 48.544C205.454 49.3547 205.774 49.76 206.414 49.76C206.883 49.76 207.523 49.5467 208.334 49.12ZM190.157 76.704C192.504 76.704 194.68 76.192 196.685 75.168C198.691 74.144 200.504 72.7787 202.126 71.072C203.79 69.3653 205.262 67.4667 206.542 65.376C207.822 63.2853 208.91 61.1307 209.806 58.912C210.702 56.6933 211.384 54.5813 211.854 52.576C210.574 52.7467 208.974 53.088 207.054 53.6C205.176 54.1547 203.171 54.8373 201.038 55.648C198.904 56.5013 196.792 57.4613 194.701 58.528C192.611 59.5947 190.712 60.768 189.005 62.048C187.299 63.3707 185.933 64.7573 184.909 66.208C183.885 67.6587 183.373 69.1733 183.373 70.752V71.776C183.373 72.8 183.736 73.6747 184.461 74.4C185.144 75.168 186.019 75.744 187.085 76.128C188.109 76.512 189.133 76.704 190.157 76.704ZM235.944 52.448C232.616 52.448 230.952 50.784 230.952 47.456C230.952 46.432 231.186 45.2373 231.656 43.872C232.168 42.464 232.701 41.2693 233.256 40.288C230.866 42.1227 228.946 43.872 227.496 45.536C226.045 47.1573 225 48.352 224.36 49.12C224.189 49.2907 223.976 49.6533 223.72 50.208C223.464 50.72 223.165 51.2107 222.824 51.68C222.482 52.1067 222.098 52.32 221.672 52.32C221.245 52.32 220.946 52.1493 220.776 51.808C220.605 51.4667 220.52 51.1253 220.52 50.784C220.52 50.5707 220.584 50.336 220.712 50.08C221.266 49.0987 221.906 47.6053 222.632 45.6C223.4 43.552 224.018 41.4827 224.488 39.392C224.573 39.0507 224.637 38.7733 224.68 38.56C224.765 38.3467 224.872 38.112 225 37.856C225.213 37.3867 225.661 37.0027 226.344 36.704C227.069 36.4053 227.645 36.256 228.072 36.256C228.285 36.256 228.498 36.32 228.712 36.448C228.968 36.5333 229.095 36.7253 229.095 37.024C229.095 37.2373 228.968 37.7067 228.712 38.432C228.456 39.1573 228.136 39.968 227.752 40.864C227.41 41.76 227.069 42.6133 226.728 43.424C226.429 44.192 226.216 44.7253 226.088 45.024C226.429 44.7253 226.962 44.2347 227.688 43.552C228.413 42.8267 229.224 42.0587 230.12 41.248C231.058 40.3947 231.997 39.584 232.936 38.816C233.874 38.048 234.706 37.408 235.432 36.896C236.157 36.384 236.69 36.128 237.032 36.128C237.629 36.128 238.141 36.2773 238.568 36.576C239.037 36.832 239.272 37.3013 239.272 37.984C239.272 38.2827 239.037 38.7733 238.568 39.456C238.098 40.1387 237.544 40.9493 236.904 41.888C236.264 42.8267 235.709 43.8293 235.24 44.896C234.77 45.9627 234.536 47.0293 234.536 48.096C234.536 48.864 234.728 49.5253 235.112 50.08C235.538 50.592 236.114 50.848 236.84 50.848C237.992 50.848 239.101 50.592 240.168 50.08C241.234 49.5253 242.216 48.864 243.112 48.096C244.008 47.328 244.797 46.5813 245.48 45.856C246.162 45.088 246.696 44.4907 247.08 44.064C247.122 44.0213 247.165 44 247.208 44C247.293 44 247.4 44.064 247.528 44.192C247.656 44.2773 247.72 44.4267 247.72 44.64C247.72 44.8533 247.634 45.0453 247.464 45.216C246.482 46.368 245.394 47.4987 244.2 48.608C243.048 49.7173 241.789 50.6347 240.424 51.36C239.058 52.0853 237.565 52.448 235.944 52.448ZM261.563 52.192C260.198 52.192 259.174 51.872 258.491 51.232C257.808 50.5493 257.36 49.696 257.147 48.672C256.976 47.648 256.912 46.624 256.955 45.6C256.315 46.4533 255.526 47.392 254.587 48.416C253.648 49.3973 252.624 50.2507 251.515 50.976C250.406 51.7013 249.275 52.064 248.123 52.064C247.27 52.064 246.566 51.872 246.011 51.488C245.456 51.0613 245.179 50.4 245.179 49.504C245.179 48.0107 245.648 46.432 246.587 44.768C247.568 43.104 248.806 41.5253 250.299 40.032C251.792 38.496 253.392 37.2587 255.099 36.32C256.806 35.3813 258.406 34.912 259.899 34.912C260.326 34.912 260.923 34.9973 261.691 35.168C262.459 35.3387 263.142 35.5947 263.739 35.936C264.379 36.2773 264.699 36.7467 264.699 37.344C264.699 37.6427 264.507 37.8133 264.123 37.856C263.739 37.8987 263.462 38.0267 263.291 38.24C262.054 39.7333 261.435 42.144 261.435 45.472C261.435 45.8987 261.456 46.4747 261.499 47.2C261.542 47.9253 261.691 48.5653 261.947 49.12C262.246 49.6747 262.694 49.952 263.291 49.952C264.187 49.952 265.147 49.568 266.171 48.8C267.195 48.032 268.219 47.1147 269.243 46.048C270.267 44.9387 271.206 43.936 272.059 43.04C272.144 42.912 272.23 42.848 272.315 42.848C272.528 42.848 272.699 42.976 272.827 43.232C272.998 43.4453 272.998 43.6373 272.827 43.808C271.803 45.0027 270.8 46.0693 269.819 47.008C268.88 47.9467 267.899 48.8427 266.875 49.696C264.912 51.36 263.142 52.192 261.563 52.192ZM251.579 49.12C252.56 48.5653 253.542 47.6907 254.523 46.496C255.547 45.3013 256.507 43.936 257.403 42.4C258.342 40.864 259.131 39.328 259.771 37.792C258.747 37.792 257.595 38.176 256.315 38.944C255.035 39.6693 253.819 40.608 252.667 41.76C251.515 42.8693 250.555 44.0427 249.787 45.28C249.062 46.4747 248.699 47.5627 248.699 48.544C248.699 49.3547 249.019 49.76 249.659 49.76C250.128 49.76 250.768 49.5467 251.579 49.12ZM275.451 52.384C273.744 52.384 272.486 51.936 271.675 51.04C270.864 50.144 270.459 48.8853 270.459 47.264C270.459 45.7707 270.8 44.128 271.483 42.336C272.166 40.5013 272.912 38.9867 273.723 37.792C273.339 37.8347 272.934 37.8987 272.507 37.984C272.123 38.0267 271.718 38.048 271.291 38.048C270.608 38.048 269.99 37.9413 269.435 37.728C268.923 37.472 268.667 37.0027 268.667 36.32C268.667 35.9787 268.816 35.744 269.115 35.616C269.414 35.488 269.712 35.4453 270.011 35.488L274.811 35.744C275.323 34.848 275.942 33.8027 276.667 32.608C277.435 31.3707 278.267 30.176 279.163 29.024C280.102 27.872 281.104 26.9333 282.171 26.208C283.238 25.44 284.347 25.056 285.499 25.056C285.755 25.056 286.096 25.0987 286.523 25.184C286.992 25.2267 287.291 25.44 287.419 25.824C287.462 25.9093 287.483 26.016 287.483 26.144C287.483 26.4 287.376 26.6347 287.163 26.848C286.95 27.0187 286.736 27.2107 286.523 27.424C285.115 28.7893 283.792 30.1333 282.555 31.456C281.36 32.7787 280.187 34.2507 279.035 35.872C279.888 35.9147 280.72 35.936 281.531 35.936C282.384 35.8933 283.216 35.872 284.027 35.872C284.454 35.872 284.859 35.9147 285.243 36C285.67 36.0853 285.904 36.2987 285.947 36.64C285.947 36.896 285.606 37.088 284.923 37.216C284.24 37.344 283.43 37.4507 282.491 37.536C281.552 37.5787 280.656 37.6213 279.803 37.664C278.95 37.664 278.374 37.664 278.075 37.664C277.563 38.432 276.987 39.4133 276.347 40.608C275.75 41.8027 275.216 43.0187 274.747 44.256C274.32 45.4933 274.107 46.5813 274.107 47.52C274.107 49.6107 275.003 50.656 276.795 50.656C278.032 50.656 279.248 50.3787 280.443 49.824C281.638 49.2693 282.768 48.5867 283.835 47.776C284.944 46.9653 285.904 46.176 286.715 45.408C287.526 44.64 288.123 44.064 288.507 43.68C288.678 43.5093 288.827 43.424 288.955 43.424C289.126 43.424 289.211 43.552 289.211 43.808C289.211 44.2347 289.083 44.576 288.827 44.832C287.59 46.0693 286.246 47.2853 284.795 48.48C283.344 49.632 281.83 50.5707 280.251 51.296C278.715 52.0213 277.115 52.384 275.451 52.384ZM301.414 52.96C300.091 52.96 299.067 52.5333 298.342 51.68C297.617 50.8267 297.254 49.7387 297.254 48.416C297.254 47.8187 297.339 47.1787 297.51 46.496C297.681 45.7707 297.958 45.0453 298.342 44.32C297.915 44.7893 297.382 45.408 296.742 46.176C296.102 46.944 295.398 47.712 294.63 48.48C293.905 49.248 293.137 49.888 292.326 50.4C291.558 50.912 290.833 51.168 290.15 51.168C288.955 51.168 288.145 50.7627 287.718 49.952C287.334 49.1413 287.142 48.224 287.142 47.2C287.142 46.5173 287.291 45.6853 287.59 44.704C287.931 43.7227 288.379 42.7627 288.934 41.824C289.489 40.8853 290.129 40.1173 290.854 39.52C291.579 38.88 292.347 38.56 293.158 38.56C293.457 38.56 293.798 38.624 294.182 38.752C294.609 38.88 294.822 39.1147 294.822 39.456C294.822 39.6267 294.609 40.0107 294.182 40.608C293.798 41.1627 293.329 41.8027 292.774 42.528C292.262 43.2533 291.793 44 291.366 44.768C290.982 45.4933 290.79 46.1547 290.79 46.752C290.79 47.136 290.833 47.52 290.918 47.904C291.046 48.2453 291.345 48.416 291.814 48.416C292.667 48.416 293.521 48.0107 294.374 47.2C295.27 46.3467 296.166 45.3013 297.062 44.064C297.958 42.8267 298.811 41.6107 299.622 40.416C300.475 39.1787 301.243 38.1547 301.926 37.344C302.651 36.4907 303.27 36.064 303.782 36.064C304.379 36.064 304.913 36.2773 305.382 36.704C305.894 37.088 306.15 37.5787 306.15 38.176C305.595 39.0293 304.87 40.1387 303.974 41.504C303.078 42.8267 302.267 44.1707 301.542 45.536C300.859 46.9013 300.518 48.0747 300.518 49.056C300.518 49.952 300.71 50.5707 301.094 50.912C301.521 51.2533 302.011 51.424 302.566 51.424C303.121 51.424 303.761 51.2747 304.486 50.976C305.211 50.6773 305.851 50.3787 306.406 50.08C307.985 49.1413 309.457 47.968 310.822 46.56C312.187 45.152 313.361 43.9573 314.342 42.976C314.47 42.848 314.598 42.784 314.726 42.784C314.939 42.784 315.046 42.9547 315.046 43.296C315.046 43.5947 314.918 43.9147 314.662 44.256C313.809 45.2373 312.657 46.3893 311.206 47.712C309.798 48.992 308.347 50.1227 306.854 51.104C306.043 51.616 305.169 52.0427 304.23 52.384C303.291 52.768 302.353 52.96 301.414 52.96ZM325.765 53.088C324.272 53.088 323.013 52.7467 321.989 52.064C320.965 51.3813 320.453 50.2293 320.453 48.608C320.453 47.584 320.858 46.2187 321.669 44.512C322.48 42.8053 323.482 41.2267 324.677 39.776C324.464 39.8187 324.186 39.8613 323.845 39.904C323.546 39.904 323.205 39.904 322.821 39.904C322.181 39.904 321.541 39.8187 320.901 39.648C320.261 39.4347 319.834 39.0507 319.621 38.496C319.45 38.7093 319.024 39.2427 318.341 40.096C317.658 40.9493 316.869 41.888 315.973 42.912C315.12 43.8933 314.33 44.7467 313.605 45.472C312.88 46.1973 312.389 46.56 312.133 46.56C312.048 46.56 311.941 46.5173 311.813 46.432C311.685 46.3467 311.621 46.24 311.621 46.112C311.621 45.8987 311.834 45.5787 312.261 45.152C312.73 44.7253 313.072 44.4053 313.285 44.192C314.906 42.4427 316.101 41.0133 316.869 39.904C317.68 38.752 318.234 37.8987 318.533 37.344C318.277 36.96 318.149 36.3627 318.149 35.552C318.149 34.656 318.277 33.7173 318.533 32.736C318.832 31.712 319.216 30.8373 319.685 30.112C320.197 29.3867 320.773 29.024 321.413 29.024C322.138 29.024 322.736 29.408 323.205 30.176C323.674 30.944 323.909 31.648 323.909 32.288C323.909 32.8 323.717 33.3547 323.333 33.952C322.949 34.5493 322.501 35.1253 321.989 35.68C321.52 36.2347 321.114 36.6827 320.773 37.024C321.157 38.048 321.904 38.56 323.013 38.56C323.781 38.56 324.421 38.3467 324.933 37.92C325.445 37.4933 325.914 37.088 326.341 36.704C326.768 36.2773 327.216 36.064 327.685 36.064C328.282 36.064 328.816 36.2773 329.285 36.704C329.754 37.088 329.968 37.5787 329.925 38.176C329.2 38.944 328.389 39.9893 327.493 41.312C326.64 42.592 325.914 43.936 325.317 45.344C324.72 46.7093 324.421 47.9467 324.421 49.056C324.421 49.8667 324.656 50.4213 325.125 50.72C325.637 51.0187 326.298 51.168 327.109 51.168C327.877 51.168 328.688 50.9547 329.541 50.528C330.394 50.1013 331.248 49.5893 332.101 48.992C332.656 48.608 333.466 47.904 334.533 46.88C335.642 45.856 336.922 44.5547 338.373 42.976C338.458 42.8907 338.544 42.848 338.629 42.848C338.97 42.848 339.141 43.0827 339.141 43.552C339.141 43.68 338.885 44.0427 338.373 44.64C337.861 45.1947 337.242 45.8347 336.517 46.56C335.834 47.2853 335.173 47.968 334.533 48.608C333.893 49.2053 333.424 49.6107 333.125 49.824C332.058 50.6347 330.906 51.3813 329.669 52.064C328.474 52.7467 327.173 53.088 325.765 53.088ZM343.237 52.448C341.36 52.448 339.717 52 338.309 51.104C336.901 50.208 336.197 48.7147 336.197 46.624C336.197 45.344 336.538 44.0213 337.221 42.656C337.946 41.248 338.885 39.9467 340.037 38.752C341.189 37.5573 342.426 36.5973 343.749 35.872C345.114 35.104 346.458 34.72 347.781 34.72C348.464 34.72 349.04 34.912 349.509 35.296C349.978 35.6373 350.213 36.1707 350.213 36.896C350.213 37.7493 349.829 38.624 349.061 39.52C348.336 40.416 347.418 41.2693 346.309 42.08C345.242 42.848 344.154 43.5307 343.045 44.128C341.936 44.6827 341.018 45.088 340.293 45.344C340.165 45.856 340.101 46.3893 340.101 46.944C340.101 47.9253 340.357 48.8 340.869 49.568C341.424 50.336 342.362 50.72 343.685 50.72C345.008 50.72 346.202 50.464 347.269 49.952C348.378 49.3973 349.381 48.736 350.277 47.968C351.173 47.1573 351.984 46.3893 352.709 45.664C353.306 45.0667 353.797 44.576 354.181 44.192C354.565 43.7653 354.906 43.4027 355.205 43.104C355.333 42.976 355.525 42.912 355.781 42.912C355.994 42.912 356.165 42.9973 356.293 43.168C356.421 43.296 356.378 43.4667 356.165 43.68C355.994 43.8933 355.696 44.2133 355.269 44.64C354.885 45.024 354.501 45.4293 354.117 45.856C353.776 46.24 353.52 46.5173 353.349 46.688C351.472 48.6933 349.68 50.1653 347.973 51.104C346.266 52 344.688 52.448 343.237 52.448ZM340.485 44.064C340.912 43.9787 341.509 43.7227 342.277 43.296C343.088 42.8267 343.877 42.2933 344.645 41.696C344.986 41.3973 345.456 40.9493 346.053 40.352C346.65 39.7547 347.056 39.2427 347.269 38.816C347.568 38.2613 347.717 37.8133 347.717 37.472C347.717 36.96 347.44 36.704 346.885 36.704C346.586 36.704 346.266 36.768 345.925 36.896C345.498 37.0667 344.986 37.4933 344.389 38.176C343.792 38.8587 343.322 39.392 342.981 39.776C342.469 40.416 341.978 41.12 341.509 41.888C341.082 42.6133 340.741 43.3387 340.485 44.064Z" fill="#101010"/>
</svg>
