<svg width="25" height="24" viewBox="0 0 25 24" fill="none" xmlns="http://www.w3.org/2000/svg">
<g clip-path="url(#clip0_123_20957)">
<path d="M12.5 0C15.6826 0 18.7348 1.26428 20.9853 3.51472C23.2357 5.76516 24.5 8.8174 24.5 12C24.5 15.1826 23.2357 18.2348 20.9853 20.4853C18.7348 22.7357 15.6826 24 12.5 24C9.3174 24 6.26516 22.7357 4.01472 20.4853C1.76428 18.2348 0.5 15.1826 0.5 12C0.5 8.8174 1.76428 5.76516 4.01472 3.51472C6.26516 1.26428 9.3174 0 12.5 0ZM2.75 12C2.75 14.5859 3.77723 17.0658 5.60571 18.8943C7.43419 20.7228 9.91414 21.75 12.5 21.75C15.0859 21.75 17.5658 20.7228 19.3943 18.8943C21.2228 17.0658 22.25 14.5859 22.25 12C22.25 9.41414 21.2228 6.93419 19.3943 5.10571C17.5658 3.27723 15.0859 2.25 12.5 2.25C9.91414 2.25 7.43419 3.27723 5.60571 5.10571C3.77723 6.93419 2.75 9.41414 2.75 12ZM10.0685 7.8405L16.4645 11.679C16.5198 11.7124 16.5655 11.7595 16.5972 11.8157C16.629 11.8719 16.6456 11.9354 16.6456 12C16.6456 12.0646 16.629 12.1281 16.5972 12.1843C16.5655 12.2405 16.5198 12.2876 16.4645 12.321L10.0685 16.1595C10.0116 16.1938 9.94667 16.2123 9.88028 16.2132C9.81389 16.2142 9.74844 16.1975 9.69062 16.1648C9.6328 16.1322 9.58469 16.0848 9.5512 16.0274C9.51771 15.9701 9.50004 15.9049 9.5 15.8385V8.163C9.49977 8.09647 9.51725 8.03109 9.55063 7.97354C9.58401 7.916 9.6321 7.86837 9.68997 7.83555C9.74783 7.80272 9.81338 7.78588 9.8799 7.78675C9.94642 7.78762 10.0115 7.80617 10.0685 7.8405Z" fill="#262626"/>
</g>
<defs>
<clipPath id="clip0_123_20957">
<rect width="24" height="24" fill="white" transform="translate(0.5)"/>
</clipPath>
</defs>
</svg>
